# xmcd
#
# Track frame offsets: 
#        150
#        21752
#        41826
#        63685
#        80188
#        101157
#        125360
#        146191
#        168197
#        191017
#
# Disc length: 2757 seconds
#
# Revision: 0
# Processed by: cddbd v1.5.2PL0 Copyright (c) Steve Scherf et al.
# Submitted via: ExactAudioCopyFreeDBPlugin 1.0
#
DISCID=940ac30a
DTITLE=Nguyen Khang - Tinh ben
DYEAR=1900
DGENRE=
TTITLE0=Vao ha
TTITLE1=Tung giot cafe
TTITLE2=Em den roi di
TTITLE3=Vi vam oan nghiet
TTITLE4=Yeu la the
TTITLE5=Loi vong cho hoai nhan
TTITLE6=Mot thuo yeu nguoi
TTITLE7=Tinh ben
TTITLE8=Mot mai em di
TTITLE9=Nho em
EXTD=
EXTT0=
EXTT1=
EXTT2=
EXTT3=
EXTT4=
EXTT5=
EXTT6=
EXTT7=
EXTT8=
EXTT9=
PLAYORDER=
